# xmcd
#
# Track frame offsets:
#	150
#	13431
#	25372
#	37353
#	55449
#	70799
#	83931
#	96249
#	109132
#	122598
#
# Disc length: 1786 seconds
#
# Revision: 0
# Processed by: cddbd v1.5.2PL0 Copyright (c) Steve Scherf et al.
# Submitted via: dBpowerAMP V4.0
#
DISCID=9006f80a
DTITLE=Oak Ridge Boys - American Music Legends
DYEAR=2007
DGENRE=Country
TTITLE0=Come On In
TTITLE1=Elvira
TTITLE2=American Made
TTITLE3=Make My Life With You
TTITLE4=Break My Mind
TTITLE5=Y'all Come Back Saloon
TTITLE6=Dig A Little Deeper In The Well
TTITLE7=Bobbie Sue
TTITLE8=Leaving Louisiana In The Broad Daylight
TTITLE9=Thank God For Kids
EXTD=
EXTT0=
EXTT1=
EXTT2=
EXTT3=
EXTT4=
EXTT5=
EXTT6=
EXTT7=
EXTT8=
EXTT9=
PLAYORDER=
